<svg xmlns="http://www.w3.org/2000/svg" width="283" height="144" viewBox="0 0 283 144" role="img" aria-label="Author">
  <title>Author</title>
  <defs>
    <linearGradient id="authorTextGradient" x1="32.75" y1="0" x2="264" y2="0" gradientUnits="userSpaceOnUse">
      <stop offset="0%" stop-color="#ffdb7f"/>
      <stop offset="39%" stop-color="#ffdb7f"/>
      <stop offset="48%" stop-color="#f3f3f2"/>
      <stop offset="100%" stop-color="#f3f3f2"/>
    </linearGradient>
  </defs>
  <path fill="url(#authorTextGradient)" fill-rule="evenodd" d="M 130.75 44 L 129.25 43.5 L 128.5 42.75 L 126.75 42.75 L 125 41.75 L 123 41.75 L 121.25 40.75 L 119 40.75 L 117 39.75 L 114 39.75 L 111.75 38.75 L 107.75 38.75 L 104.75 37.75 L 92.5 37.75 L 90.75 38.75 L 88.75 38.75 L 87.25 39.75 L 86.25 39.75 L 85.5 40.5 L 84 41 L 83.75 41.5 L 83 41.75 L 80.5 43.75 L 76.75 48.75 L 76.5 50 L 75.75 50.75 L 75.75 51.75 L 74.75 53.5 L 74.75 55.5 L 74.25 56.75 L 74.25 58.5 L 74.75 59 L 75.75 59 L 76.25 58.5 L 76.25 57.5 L 77 55.5 L 77 54 L 78 52 L 78 51 L 79.25 48.75 L 82.25 45.25 L 85 43.75 L 85.75 43 L 87 43 L 88.5 42 L 102.5 42 L 104.75 43 L 108 43 L 110 44 L 112.25 44 L 114 45 L 116 45 L 117.5 46 L 119.5 46 L 119.75 46.75 L 113.75 51.5 L 108.5 56.5 L 106.75 57.75 L 92.25 72.5 L 91.75 72.75 L 81 72.75 L 80.25 73.5 L 79.25 73.75 L 77.75 75.25 L 78.25 76 L 82.25 76 L 83.5 75.25 L 85 75.25 L 85.25 75 L 89.25 75 L 89.5 75.5 L 78.5 85.75 L 74.5 88.75 L 73.75 89 L 73 89.75 L 72 90 L 71.75 90.5 L 70.75 90.75 L 70 91.5 L 68.75 91.75 L 67.5 92.75 L 66.5 92.75 L 65.25 93.75 L 64 93.75 L 62.5 94.75 L 60.5 94.75 L 58.5 95.75 L 47 95.75 L 45.5 94.75 L 44.5 94.75 L 41 92.5 L 39 90.25 L 38 88.5 L 38 87.5 L 37.25 86.25 L 37.25 83 L 38 81.5 L 38 80.75 L 39.75 78 L 39.5 76.75 L 38 76.75 L 36.75 78 L 35 80.75 L 34.5 82.5 L 33.75 83.5 L 33.75 84.5 L 32.75 87.25 L 32.75 92.25 L 33.5 93.75 L 33.75 95.25 L 34.5 96 L 35 97.25 L 37 99.25 L 38.75 100.25 L 39 100.75 L 41 101.25 L 41.75 102 L 54.25 102 L 56.25 101 L 58.5 101 L 59.5 100.25 L 61.5 100 L 63 99 L 64 99 L 65.25 98 L 66.25 98 L 67.25 97 L 68 97 L 70.75 95 L 71.75 94.75 L 72 94.25 L 74.25 93 L 76.5 91 L 77 91 L 77.5 90.25 L 78.25 90 L 80.25 88 L 81.75 87 L 93.5 75 L 97.5 75 L 98.5 74.5 L 106.25 74.5 L 107.75 74 L 110.25 74 L 110.75 74.5 L 110.75 75.25 L 109.75 78.5 L 109.75 81.75 L 109.5 82 L 109.5 84 L 109 86 L 109 92.75 L 109.5 93.5 L 110 97 L 111.5 99.5 L 114.5 102 L 120.25 102 L 121.5 101 L 122.25 101 L 127 96.5 L 130 92.25 L 129.5 91.75 L 128 91.75 L 126.75 93.5 L 124.5 95.75 L 123 96.75 L 119 96.75 L 118.25 96.25 L 118 95.5 L 117.25 94.75 L 116.25 90.25 L 116.25 83.5 L 116.5 83.25 L 116.5 81 L 117 78.5 L 117 75.75 L 117.75 73.5 L 118.25 69.5 L 119 68 L 119.25 65.75 L 119.75 65 L 120 63.25 L 121 61.5 L 121 60.75 L 122 58.25 L 122.75 57.25 L 123.25 55.5 L 125 53 L 125.25 52 L 128.25 47.75 L 129 47.25 L 129.25 46.5 L 131 44.5 Z M 235.75 27.75 L 235.25 27.75 L 234.25 26.75 L 227.25 26.75 L 226.5 27.5 L 224.5 27.75 L 223.75 28.5 L 222.5 28.75 L 221.5 29.75 L 221 29.75 L 220.25 30.5 L 219.5 30.75 L 214.75 34.75 L 209.75 40.25 L 208 42.5 L 207.75 43.25 L 205.75 45.5 L 205.75 46 L 203.75 48.5 L 203.75 49 L 203 49.75 L 201.75 52 L 201.75 52.5 L 200.75 53.5 L 200.5 54.5 L 199.75 55.25 L 198.5 58.25 L 197.75 59 L 197.5 60.25 L 196.75 61 L 196.75 61.75 L 196 62.75 L 195.75 63.75 L 194.75 65.25 L 194.75 66 L 193.75 67.5 L 193.75 68.5 L 192.75 69.75 L 192.75 70.5 L 191.75 72 L 191.75 73.25 L 190.75 74.5 L 190.5 76.25 L 189.75 77.25 L 189.75 78.5 L 188.75 79.75 L 188.75 81.25 L 187.75 82.75 L 187.5 84.5 L 186.75 85.5 L 186.75 87.25 L 185.75 88.75 L 185.75 90.5 L 184.75 92 L 184.75 93.5 L 183.75 95.5 L 183.75 97.25 L 182.75 99 L 182.75 101.75 L 183 102 L 187.25 102 L 188.25 101 L 189 100.75 L 190 99 L 190 97.5 L 191 96.25 L 191.25 94.5 L 191.75 94 L 193.25 90.5 L 195 88.25 L 195 87.75 L 195.75 87 L 196 86.25 L 200.25 82 L 201.75 81 L 202.75 81 L 203.5 80.25 L 204.5 80.25 L 204.75 81.25 L 203.75 82.5 L 203.75 83.5 L 202.75 84.5 L 202.75 85.5 L 201.75 87.25 L 201.75 88.5 L 200.75 90.5 L 200.75 92.5 L 199.75 95.5 L 199.75 99 L 202 102 L 207.25 102 L 209.75 100 L 210.25 100 L 212 98.25 L 212.25 97.5 L 213 97 L 213 95.75 L 212.25 95.25 L 211.5 95.25 L 208.25 98.5 L 207.5 98.75 L 207 98.25 L 207 92 L 208 90 L 208 88.5 L 209 87 L 209 86 L 210 84.5 L 210.25 83.25 L 212 80.75 L 212 77.25 L 211.5 76.75 L 210.75 76.5 L 210 75.75 L 207.75 75.75 L 206.5 76.5 L 203.75 76.75 L 203.25 77.5 L 201.75 77.75 L 201.25 78.5 L 200.75 78.5 L 198.75 79.75 L 194.25 84.25 L 194 84 L 194 82.5 L 194.25 81.75 L 195 81 L 195 79.25 L 195.75 78.25 L 196 76.25 L 196.75 75 L 197 73.25 L 198 71.25 L 198.25 69.5 L 199 68.5 L 199 67.25 L 200 65.75 L 200 64.5 L 201 63.25 L 201 62 L 202 60.5 L 202 59.5 L 203 58.25 L 203 57.25 L 204 56 L 204.25 54.5 L 204.75 54 L 206.25 50.5 L 207 49.75 L 207.25 48.75 L 208 48 L 208 47.5 L 211 43 L 213 40.5 L 216.5 37 L 218.25 36 L 219.25 35 L 220.25 34.75 L 220.5 34.25 L 222.25 34 L 223.5 33 L 226.25 33 L 226.5 32.75 L 232 33 L 233.75 34.5 L 233.75 35.25 L 234.25 36 L 234 37.25 L 235 38.5 L 236.25 38.25 L 237 37.5 L 237 37 L 238 35.5 L 238 30.5 Z M 234.75 76.75 L 233.5 76.75 L 231.75 75.75 L 229.5 75.75 L 227.5 76.75 L 226.25 76.75 L 225.5 77.5 L 224.5 77.75 L 223.25 78.75 L 218.75 83.5 L 218.75 84 L 217.75 85.25 L 217.75 85.75 L 216.75 87.25 L 216.5 88.5 L 215.75 89.5 L 215.75 91.5 L 215 92.75 L 215 96.25 L 215.5 96.75 L 216 99 L 217.75 101 L 218.5 101.25 L 219.25 102 L 226 102 L 226.5 101.25 L 227.75 101 L 230.5 99 L 235 94 L 235.25 93 L 236 92.25 L 236 91.75 L 237 90.25 L 237 89.25 L 237.75 88.25 L 238 87.25 L 238 80.75 L 237.25 80 L 236.75 78.75 Z M 133 82.25 L 132.75 83.5 L 133.25 84 L 134.75 84 L 135 84.75 L 134.75 85.75 L 133.75 87.25 L 133.75 88.5 L 132.75 90 L 132.75 91.75 L 131.75 94.25 L 131.75 99.25 L 134 102 L 139.5 102 L 143.5 99 L 148 94.25 L 148 93.75 L 149.25 92 L 149.75 92.25 L 149.75 92.75 L 149.25 93.5 L 149.25 95 L 149 95.25 L 149 98.25 L 149.5 98.75 L 149.75 100.5 L 151.5 102 L 156.75 102 L 159.5 100 L 162 97.25 L 162 96 L 161.75 95.75 L 160 95.75 L 157.5 98.5 L 156.5 98.5 L 156 97.5 L 156 91.25 L 157 88.75 L 157 87 L 158 85.25 L 158 84.25 L 158.75 83.25 L 159 82 L 161.5 77.5 L 161.5 76.75 L 161 76 L 158.75 75.75 L 157.25 76.75 L 156 76.75 L 154.75 77.75 L 154.5 78.5 L 153.75 79.25 L 153.5 80.5 L 152.75 81.25 L 152.5 82.25 L 150.75 84.75 L 150.75 85.5 L 149.75 86.5 L 149.75 87 L 147.75 89.5 L 147.75 90 L 147 90.75 L 146.75 91.5 L 144.75 94 L 142 96.75 L 141.5 96.75 L 140.5 97.75 L 139.75 97.75 L 139 97 L 139 91.25 L 139.75 90 L 140 88 L 141 86.25 L 141 85.25 L 141.75 84.25 L 143 81.25 L 146 77.25 L 146 76 L 145.75 75.75 L 143 75.75 L 142.25 76.5 L 141 76.75 L 140.25 77.5 L 139.25 77.75 L 138 78.75 L 137.5 78.75 Z M 183.25 63.75 L 181.5 63.75 L 180 64.75 L 179 64.75 L 178.25 65.5 L 177.5 65.75 L 176 67.5 L 175.75 68.5 L 174.75 69.5 L 174.75 70.25 L 173.75 71.5 L 173.5 72.5 L 172.75 73.25 L 172.75 74.25 L 171.75 75.5 L 171.75 76.25 L 171.25 76.75 L 168.75 76.75 L 168 77.5 L 166.5 78 L 165.75 78.75 L 166 80 L 169.5 80 L 169.75 80.25 L 169.75 81.25 L 168.75 82.75 L 168.5 84.5 L 167.75 85.5 L 167.75 87.25 L 166.75 89 L 166.75 90.5 L 165.75 93 L 165.75 99.5 L 168 102 L 174.25 102 L 175 101.25 L 176 101 L 177 100.25 L 181 96 L 181.25 95.25 L 181 94 L 180.75 93.75 L 179.5 93.75 L 178.75 94.5 L 178.75 95 L 176 97.75 L 175.25 97.75 L 174.5 98.5 L 174 98.5 L 172.75 97.25 L 172 95.25 L 172.5 94.5 L 172.5 93 L 173 91.75 L 173 89.5 L 173.75 88.25 L 174 86.25 L 174.75 85 L 175.25 82.5 L 176 81.5 L 176.25 79.75 L 177.25 79 L 183.5 78.75 L 185 78 L 184.75 76.75 L 178.5 76.75 L 178 76.25 L 178 75.5 L 179 74.25 L 179 73.5 L 180 72.25 L 180 71.5 L 181 70.25 L 181 69.5 L 181.75 68.75 L 182 67.75 L 183.75 65.25 L 183.75 64 Z M 263 76.75 L 262.5 76.75 L 261 75.75 L 259.5 75.75 L 258.25 76.5 L 257 76.75 L 256.25 77.5 L 255.5 77.75 L 254.75 78.5 L 254.5 79.25 L 253 80.5 L 252.75 80.25 L 252.75 78.75 L 252 77.25 L 250 75.75 L 248.25 75.75 L 247.25 76.5 L 245.5 76.75 L 245 77.5 L 243.75 78 L 243.25 78.75 L 242.75 78.75 L 240.75 81 L 241 82.75 L 242.75 82.5 L 244.25 80.5 L 245 80 L 245.75 80 L 246.25 80.5 L 245.75 82.25 L 245.75 85.5 L 244.75 87.5 L 244.75 89.5 L 243.75 91.5 L 243.75 93.25 L 242.75 94.75 L 242.75 96.25 L 241.75 97.5 L 241.75 98.75 L 240.75 100.25 L 240.75 101.75 L 241 102 L 245.5 102 L 246.25 101.25 L 247.25 101 L 247.75 100.5 L 248 98.5 L 249 96.75 L 249 95.25 L 249.75 94.25 L 250 92.5 L 251 91 L 251 90.25 L 251.75 89.25 L 252.25 87.5 L 253 86.25 L 255.5 83.25 L 256.5 83 L 257.75 82 L 259.5 82.25 L 259.75 83.25 L 260.5 84 L 262 84 L 264 80.5 L 264 78 Z M 119.75 50.25 L 119.75 51 L 118 53.5 L 117.5 55 L 116.75 55.75 L 116.75 56.5 L 116 57.5 L 115.5 59.5 L 114.75 60.5 L 114.5 62 L 113.75 63 L 113.75 64 L 112.75 66 L 112.5 68 L 111.75 69.5 L 111.75 70.75 L 111 72.25 L 110 72.5 L 109.75 72.25 L 97 72.25 L 96.75 72 L 103 65.25 L 111.5 57 L 114 55 L 114.5 54.25 L 115.25 54 L 119.5 50 Z M 228.25 80 L 230.5 81.5 L 231 83.25 L 231.75 84.25 L 231.75 90.5 L 231 91.75 L 230.75 93.5 L 229.75 95.5 L 227.5 97.75 L 226.5 97.75 L 225.75 98.5 L 224.75 98.5 L 223.5 97.75 L 222 96.25 L 222 94.75 L 221.5 93.75 L 221.5 89.75 L 222 87.75 L 222 85.5 L 223 84.25 L 223.25 83 L 225.25 81 L 225.75 81 L 227.25 80 Z M 135.5 83 L 135.75 83.75 L 135 84.25 L 134.75 83.75 Z"/>
</svg>
