<svg xmlns="http://www.w3.org/2000/svg" width="214" height="258" viewBox="0 0 214 258" role="img" aria-label="Author 羽毛标">
  <path fill="#FFD57A" fill-rule="evenodd" d="M 46 230 L 46 235 L 47 236 L 68 236 L 69 237 L 72 237 L 76 239 L 86 240 L 87 241 L 95 241 L 96 242 L 131 242 L 132 241 L 147 241 L 148 240 L 153 240 L 154 239 L 168 238 L 171 236 L 171 230 L 169 229 L 162 229 L 161 230 L 156 230 L 155 231 L 150 231 L 149 232 L 114 232 L 113 233 L 95 233 L 94 232 L 82 232 L 81 231 L 79 231 L 75 229 L 70 229 L 69 228 L 49 228 Z M 197 13 L 191 13 L 187 15 L 180 15 L 179 16 L 175 16 L 169 19 L 166 19 L 165 20 L 158 21 L 155 24 L 149 25 L 140 30 L 138 30 L 133 34 L 128 35 L 125 38 L 111 45 L 106 49 L 103 50 L 100 53 L 95 55 L 90 60 L 89 60 L 89 61 L 84 65 L 84 66 L 69 83 L 68 86 L 66 87 L 66 88 L 63 91 L 63 92 L 60 94 L 58 98 L 54 102 L 54 103 L 49 109 L 49 111 L 46 114 L 44 118 L 44 120 L 40 126 L 39 133 L 37 135 L 37 137 L 36 138 L 35 146 L 34 147 L 34 168 L 37 172 L 39 172 L 42 169 L 43 169 L 43 168 L 45 166 L 45 164 L 46 163 L 47 159 L 50 156 L 51 153 L 55 149 L 57 144 L 60 141 L 61 138 L 64 135 L 64 134 L 70 127 L 70 126 L 74 122 L 75 119 L 77 117 L 78 117 L 80 113 L 85 108 L 85 107 L 93 99 L 94 99 L 101 92 L 102 92 L 103 90 L 104 90 L 110 84 L 113 83 L 113 82 L 115 80 L 119 78 L 121 78 L 122 79 L 122 81 L 120 83 L 119 83 L 117 85 L 117 86 L 115 88 L 114 88 L 113 90 L 110 93 L 109 93 L 108 95 L 105 98 L 104 98 L 103 100 L 101 102 L 100 102 L 98 104 L 98 105 L 96 107 L 95 107 L 90 113 L 89 113 L 89 114 L 84 119 L 84 120 L 79 125 L 77 129 L 69 138 L 69 140 L 65 144 L 63 149 L 60 152 L 59 155 L 57 157 L 53 165 L 51 167 L 49 171 L 49 173 L 46 176 L 44 180 L 44 182 L 40 186 L 39 189 L 35 194 L 28 208 L 26 210 L 23 217 L 21 219 L 21 221 L 15 233 L 14 241 L 16 243 L 23 243 L 26 240 L 27 236 L 30 233 L 32 225 L 36 218 L 36 216 L 38 212 L 41 208 L 41 206 L 46 200 L 47 197 L 49 196 L 54 191 L 58 190 L 59 189 L 62 189 L 63 188 L 66 188 L 67 187 L 74 186 L 75 185 L 79 185 L 85 182 L 88 182 L 89 181 L 94 180 L 98 178 L 100 176 L 104 175 L 107 172 L 113 169 L 114 167 L 117 166 L 121 162 L 122 162 L 131 154 L 132 154 L 133 152 L 135 151 L 136 149 L 141 144 L 143 139 L 146 136 L 146 134 L 147 133 L 147 125 L 145 122 L 143 122 L 142 121 L 137 121 L 136 120 L 136 118 L 137 117 L 139 117 L 142 114 L 147 113 L 151 111 L 153 109 L 157 108 L 160 105 L 164 103 L 169 98 L 171 97 L 171 96 L 175 92 L 177 88 L 180 85 L 182 80 L 184 78 L 187 72 L 187 70 L 190 67 L 190 64 L 191 63 L 192 58 L 194 56 L 195 54 L 195 51 L 196 50 L 197 41 L 198 40 L 198 38 L 199 37 L 199 33 L 200 32 L 200 16 Z"/>
</svg>
